<svg width="16" height="15" fill="none" xmlns="http://www.w3.org/2000/svg"><path d="M5.75 10a.5.5 0 1 0-.5-.5.47.47 0 0 0 .5.5ZM15 2h-2V0h-1v2H4V0H3v2H1a.94.94 0 0 0-1 1v11a1 1 0 0 0 1 1h14a1.08 1.08 0 0 0 1-1V3a1 1 0 0 0-1-1Zm0 12H1V7h14v7ZM1 6V3h2v2h1V3h8v2h1V3h2v3H1Zm7 4a.5.5 0 1 0-.5-.5.47.47 0 0 0 .5.5Zm2.25 0a.5.5 0 1 0-.5-.5.47.47 0 0 0 .5.5Zm-4.5 1a.5.5 0 1 0 .5.5.47.47 0 0 0-.5-.5ZM3.5 10a.5.5 0 1 0 0-1 .5.5 0 0 0 0 1Zm0 1a.5.5 0 1 0 0 1 .5.5 0 0 0 0-1ZM8 11a.5.5 0 1 0 .5.5.47.47 0 0 0-.5-.5Zm2.25 0a.5.5 0 1 0 .5.5.47.47 0 0 0-.5-.5Zm2.25-1a.5.5 0 1 0-.5-.5.47.47 0 0 0 .5.5Zm0 1a.5.5 0 1 0 .5.5.47.47 0 0 0-.5-.5Z" fill="#A9A9A9"/></svg>